<?xml version="1.0" encoding="utf-8"?>
<!-- Generator: Adobe Illustrator 18.0.0, SVG Export Plug-In . SVG Version: 6.00 Build 0)  -->
<!DOCTYPE svg PUBLIC "-//W3C//DTD SVG 1.1//EN" "http://www.w3.org/Graphics/SVG/1.1/DTD/svg11.dtd">
<svg version="1.1" id="Layer_1" xmlns="http://www.w3.org/2000/svg" xmlns:xlink="http://www.w3.org/1999/xlink" x="0px" y="0px"
	 viewBox="0 0 1700 1400" enable-background="new 0 0 1700 1400" xml:space="preserve">
<g>
	<rect fill="#FFEAD7" width="1700" height="1400"/>
	<path fill="#FFDBB7" d="M1501.4,700.2c0-122.3-93.9-222.6-213.5-232.7C1206,319.9,1048.6,220,867.8,220
		c-44.9,0-88.4,6.2-129.7,17.7c-57.2-50.4-132.4-81-214.6-81c-179.4,0-324.9,145.5-324.9,324.9c0,133.6,80.6,248.3,195.8,298.2
		c38,227.1,235.5,400.2,473.4,400.2c180.6,0,337.8-99.7,419.8-247C1407.4,923,1501.4,822.6,1501.4,700.2z"/>
	<ellipse fill="#FFCFA2" cx="850" cy="1245.9" rx="429.9" ry="33"/>
	<g>
		<defs>
			<path id="SVGID_1_" d="M1501.4,700.2c0-122.3-93.9-222.6-213.5-232.7C1206,319.9,1048.6,220,867.8,220
				c-44.9,0-88.4,6.2-129.7,17.7c-57.2-50.4-132.4-81-214.6-81c-179.4,0-324.9,145.5-324.9,324.9c0,133.6,80.6,248.3,195.8,298.2
				c38,227.1,235.5,400.2,473.4,400.2c180.6,0,337.8-99.7,419.8-247C1407.4,923,1501.4,822.6,1501.4,700.2z"/>
		</defs>
		<clipPath id="SVGID_2_">
			<use xlink:href="#SVGID_1_"  overflow="visible"/>
		</clipPath>
		<path clip-path="url(#SVGID_2_)" fill="#FFFFFF" d="M1591,996.6c-64.9,0-129.9,0-194.8,0c0,0,0-0.1,0-0.1
			c2.6-52.9-22.5-105.8-71-129.8c-20.9-10.3-44.4-13.4-66.6-9.5c0,0-0.1-0.1-0.1-0.1c-25.3-21.4-60.1-28.5-91.5-17.8
			c-14.9,5.1-28.4,14.1-39,25.7c-10.1,11.1-18.2,26.2-15.1,41.4c-18.4,8.4-34.9,21.1-47.7,37c-12.5,15.4-21.2,33.7-24.9,53.1
			c-16.9,0-33.8,0-50.7,0c8.7-122,108.4-208.1,187.9-289.9c18.2-18.7,38.7-40.4,35.3-68.6c-1.4-11.9-7.7-22.1-17.9-28.5
			c-10.5-6.5-23.8-7.1-35.5-4.5c-13.5,2.9-25.6,10.8-36.5,18.9c-10.6,7.8-20.7,16.5-30.2,25.7c-19.1,18.5-35.7,39.7-50,62
			c-17.9,27.9-31.9,57.5-43.3,88.2c6-40.5,18.6-80.1,37.2-116.5c12.3-24,27.7-45.5,45.5-65.7c16.3-18.5,33-40,28.9-66.3
			c-1.6-10.3-6.4-20.3-15.1-26.5c-10.6-7.6-24.2-8-36.3-4.1c-13,4.2-23.5,14-32.4,24.1c-9.1,10.4-17.3,21.6-24.8,33.2
			c-30.6,46.9-48.1,101.6-56.9,156.6c-13.6,86.1-5.2,173.6,3.1,259.8c0.1,0.9,0.4,1.6,0.8,2.2c-52.7,0-105.4,0-158,0
			c0-0.1,0.1-0.3,0.1-0.4c2.6-29,9.3-57.5,19.5-84.8c10.3-27.5,25.1-52.2,41.6-76.3c14.3-20.9,26.8-47.5,13.7-72.2
			c-11.3-21.2-38.3-22.3-58-13.8c-25.8,11.2-36.9,40.3-45.2,65.6c-7.2-7.9-17.5-13.1-28.2-13.5c-4.2-0.1-8.1,0.7-11.8,2.3
			c-0.1-1.2-0.7-2.4-1.9-3.3c-8.9-6.8-21.2-5-30,1.1c-2.7,1.9-4.9,4.1-6.9,6.6c3.1-18.2,8.3-35.9,14.2-53.4
			c12.9,3.9,26.5,4.7,39.7,2.1c10.4-2,21.2-11.9,15.8-23.3c-5.7-12-19.5-12.5-30.6-8.6c-6.4,2.2-12.4,5.5-17.9,9.5
			c6.3-17.9,12.7-35.8,17.6-54.1c0.5,0.8,1.4,1.5,2.7,1.7c12.8,2.7,25.5,1.1,37.4-4.2c5.7-2.5,10.8-6.2,14.6-11.1
			c3.3-4.2,3.5-11.9-0.4-15.8c-7.7-7.8-22.6-5-32-2.1c-6.3,2-12,5.1-17.1,9.1c0.1-0.7,0.3-1.4,0.4-2.1c3.3-18.3,4.5-37.6,2.5-56.3
			c0.3,0,0.5,0,0.8,0c13.3-1.7,24-8.7,34.3-17c8.5-6.9,15.6-18.5,4.9-27.1c-9.9-8-22.1-1.7-30.2,5.5c-5.6,5-10.1,11.1-13.4,17.9
			c-4.6-18.1-12.7-35-25.7-49.3c-3.9-4.3-10.2,2.1-6.4,6.4c11.2,12.4,18.5,26.7,22.8,42c-6.7-3.1-13-7.6-20.6-8.1
			c-8.3-0.5-15.4,3.3-18.3,11.3c-2.7,7.3,3.5,13.9,9.6,16.5c8.9,3.7,19.8,3.7,29.2,2.6c1.9-0.2,3.2-1.4,3.8-2.9
			c2.6,21.2,0.6,43.3-3.8,64.3c-6.1-6.3-12.6-12.2-20.3-16.5c-7-3.9-20.8-9.2-24.6,1.5c-3.5,10.1-4.1,20.3,5.8,26.6
			c9.9,6.3,24.2,6.3,35.3,4c-0.5,1.8-1,3.6-1.5,5.3c-5.4,19-12.2,37.6-18.7,56.2c-11.9-14.2-34.7-20-50-7.9c-4,3.2-5.4,8-4.6,12.9
			c0.8,5.1,6.5,8,10.7,9.6c11.9,4.5,26.5,3.1,38.1-1.4c0.7-0.3,1.3-0.7,1.7-1.1c-2.1,6.2-4.1,12.4-6,18.6
			c-5.1,17-8.9,34.4-10.8,51.9c-14.1-13-40.6-28.5-54.8-9.9c-1.4,1.8-2.2,3.7-2.5,5.6c-0.2-0.2-0.4-0.5-0.6-0.7
			c-8.9-10-21.7-15.6-31.4-24.8c-9.5-9-14.5-21.5-17-34c-5.8-29.2,4.9-58.6,11.5-86.7c6.3-26.7,8.1-54.2,4.9-81.5
			c-3.1-26.6-11-52.4-23.8-75.9c-6.2-11.3-13.5-23-23.3-31.5c-8.4-7.3-20.8-13.3-31.7-8.1c-10.6,5-14,15.9-14.7,26.8
			c-1,13.2,1,27,1.8,40.3c1.8,29.8,3.9,59.6,5.9,89.5c4.2,63,8.1,126,9.4,189.2c0.5,24.1,0.6,48.3,0.2,72.4
			c-3.5-25.3-8.9-50.3-16-74.8c-8.2-28.3-19-55.9-31.8-82.4c-11.5-23.8-24.9-46.7-41.6-67.2c-15.5-19.1-34.5-35.9-57-46.3
			c-19.1-8.8-46.1-15.9-65.1-3.1c-26.7,17.9,0.9,50.7,13.2,68c18.4,25.7,37.7,50.7,56.8,76c27.9,37,55,74.7,78.1,114.8
			c21.5,37.4,38.5,77.4,45.5,120.1c-72.5,0-145,0-217.6,0c-5.8,0-5.8,9,0,9c175.5,0,351,0,526.6,0s351,0,526.6,0
			c88.6,0,177.3,0,265.9,0C1596.8,1005.6,1596.8,996.6,1591,996.6z M767.2,655.1c6.5,1,3.5,6.4,0.2,9.3c-3.4,3-8.1,5.1-12.4,6.7
			c-8.6,3.2-18,3.7-26.9,1.9c-1.1-0.2-2.1-0.1-2.9,0.3C734.6,660.8,751.5,652.6,767.2,655.1z M742,572.5
			c4.8-5.9,12.9-14.1,21.3-11.8c11.5,3.2-2,14.1-6,17.2c-7.2,5.7-15.6,10.8-24.8,12.1C734.6,583.7,737.7,577.8,742,572.5z
			 M718.2,590.7c-5.1,0.6-32.3,2.7-30.2-7.7c1.6-7.9,13.2-4,17.6-1.9c5,2.4,9.7,5.3,15.1,6.9c0.2,1.2,0.4,2.4,0.6,3.6
			C720.6,590.9,719.6,590.5,718.2,590.7z M687.9,666.8c-2.9-0.9-5.7-2.3-7.4-5c-2.1-3.3,0.1-8.6,1.1-11.9c1.4-4.5,16.3,5.1,18.3,6.6
			c4.6,3.3,8.7,7.4,12.6,11.5C704.2,669.7,696,669.2,687.9,666.8z M744.7,735.1c3.5,3.7,0.9,8.2-2.6,10.5c-3.8,2.5-9.2,2.9-13.6,3.3
			c-8.1,0.7-16.2-0.1-24.1-2.1c4.5-4.1,9.4-7.7,14.9-10.6C726.8,732.1,737.8,727.9,744.7,735.1z M661.6,746.3
			c-3.8-0.4-7.9-1.3-11.2-3.2c-5.4-3,1.9-7.5,4.8-8.6c10.9-4,23.6-0.1,31.3,8.3c-0.1,0-0.2,0-0.2,0.1
			C678.2,746,670.1,747.1,661.6,746.3z M810.3,757.9c9.9-5.2,21.9-6.8,32.7-3.4c12.1,3.7,18.7,15.4,19.7,27.5
			c2.5,28.3-21.4,52-35,74.4c-14.9,24.6-26.2,51.3-34.1,78.9c-5.7,19.9-9.3,40.3-11.1,60.9c0,0.1,0,0.3,0,0.4c-8.5,0-17,0-25.5,0
			c5.1-32.5,10.1-65,15.2-97.5c3.9-24.7,10.2-53-2.7-75.6c0.2-0.3,0.4-0.7,0.5-1.1C777.7,798.5,786.5,770.4,810.3,757.9z
			 M748.4,814.2c12.2,7,18.1,20.4,19.5,33.8c1.7,15.6-1.7,31.4-4.1,46.7c-2.6,16.4-5.1,32.7-7.7,49.1c-2.7,17-5.3,34-8,51
			c-0.1,0.6-0.1,1.2,0,1.7c-3.6,0-7.2,0-10.8,0c-0.1-0.3-0.2-0.7-0.3-1c-12.8-28.2-21.6-58-26.6-88.5c-2.5-15.3-3.8-30.9-4.1-46.4
			c-0.3-14,0.3-29.4,9.5-40.8C724.2,809.4,737,807.8,748.4,814.2z M686.8,931.7c-9.3,4.9-27.9,20.6-36,8
			c-4.7-7.3,4.2-14.4,10.2-16.1c7.8-2.3,16.3,0.3,23.8,2.4C685.5,927.9,686.1,929.8,686.8,931.7z M681.1,841.9
			c5.7,1.1,11.4,1,17-0.3c-0.6,5.2-0.8,10.5-0.8,15.5c0,15.1,1.4,30.1,3.4,45.1c3.6,26.4,10.4,52.4,20,77.3
			C693.9,938.7,680.2,890.5,681.1,841.9z M694.5,810c5.7-5.6,15-7.1,21.6-2.5c-3.8,2.9-7.2,6.5-9.9,10.4c-3,4.3-5,9.2-6.3,14.2
			c-0.5-0.1-1.1,0-1.8,0.2c-5,1.5-9.9,1.8-15,0.9C685.2,824.6,688.1,816.3,694.5,810z M505.5,609.9c-2-29.5-4-59-5.7-88.5
			c-0.7-11.3-3-25.1,3.3-35.2c8.1-13,24.6-1.3,31.7,6c9.2,9.5,16,22.2,21.7,34c6,12.2,10.4,25.2,13.7,38.4c6.6,26.5,7.7,54.5,4,81.6
			c-4,29.5-15.6,57.6-17.3,87.5c-1.5,25.2,5.7,51.7,25.8,68.1c10.2,8.3,22.5,14.1,30.2,25.1c6.7,9.5,8.5,21.2,7.8,32.5
			c-1.6,25.2-16.3,47.3-33.1,65.2c-21.6,22.9-47.2,42.9-61,72c-6.3,0-12.6,0-18.9,0c2-0.3,3.8-1.7,4-4.3
			C522.1,864.9,514.1,737.1,505.5,609.9z M432.8,840.8c-33.8-52.8-73.5-101.3-110.3-152c-8.9-12.3-18.9-24.6-25.7-38.3
			c-3.1-6.2-4.4-13.4-1.1-19.8c2.5-4.8,7.7-7.5,12.7-9.1c11.1-3.6,23.2-1.3,34.1,1.8c11.8,3.4,22.8,9.1,33,15.9
			c21.1,14.2,37.8,34.4,51.7,55.5c15.6,23.6,28.1,49.4,38.7,75.5c28.5,70.1,41,146.5,36.8,222c-0.2,2.6,1.4,4,3.4,4.3c0,0,0,0,0.1,0
			c-2.5,0-5,0-7.5,0C489.7,939.9,463.4,888.6,432.8,840.8z M536.6,996.6c11.6-21.7,30-38.3,47.3-55.5c18-17.8,33.8-36.5,41.7-60.9
			c4.6-14.3,5.7-29.7,1.4-43.7c0.3,0.2,0.6,0.4,0.9,0.6c11.2,6.8,26.5,8.2,39.3,6.7c5.7-0.7,5.8-9.7,0-9c-8.9,1-17.5,0.4-26.2-2
			c-6.8-1.9-20.1-8-14.5-17.2c4.8-8,17.8-2.7,23.9,0.2c7.6,3.6,14.2,8.7,20,14.7c0.7,0.7,1.4,1.1,2.1,1.3
			c-0.5,7.4-0.7,14.8-0.5,22.2c0.5,20.9,3.8,41.7,9.6,61.8c-9-2.2-18.3-3.3-27,0.4c-8.8,3.8-15.7,13-13.4,23
			c2.2,9.7,11,14.1,20.4,13.7c10.8-0.5,19.1-8.1,28.4-12.9c7.1,17.7,16.2,34.6,27.2,50.2c2.1,3,6.2,2.2,7.8,0
			c0.9,2.1,1.8,4.2,2.7,6.3c-63.3,0-126.6,0-189.9,0C537.5,996.6,537.1,996.6,536.6,996.6z M1136.5,869.2
			c9.4-9.9,21.5-17.2,34.4-21.7c25.7-8.8,54.8-3.7,76.6,12.3c-21.4,6.2-40.8,19.3-54,38.9c-0.3,0.4-0.5,0.8-0.6,1.2
			c-0.8-0.2-1.6-0.5-2.4-0.7c-23.3-6.2-47.2-4.3-69,3.8C1119.9,890.2,1128,878.2,1136.5,869.2z M1081.4,674.6
			c17.6-20.2,38.1-39.6,61.4-53.1c11.9-6.9,25.5-10.9,39.1-7.6c13.1,3.2,21,14,22.2,27.1c2.5,28.9-25,51.4-43.2,69.9
			c-21.5,21.8-43.4,43.3-64.3,65.6c-57.3,61-109.8,133.9-115.9,220.1c-6.4,0-12.9,0-19.3,0C981.2,883.5,1003.8,764,1081.4,674.6z
			 M985.5,628.2c11.4-25.7,26-50,43.8-71.8c8.9-11,19.1-22,32.7-26.9c12.3-4.4,26.7-2.3,34.6,8.8c15.7,22.2-0.6,49.2-15.3,66.7
			c-8.6,10.2-17.6,20-25.7,30.7c-7.9,10.6-15,21.8-21.5,33.3c-28.8,51.3-44.7,110.5-47.5,169.3c-13.5,45-22.5,91.6-30.7,137.8
			C944.9,859.5,936.7,737.6,985.5,628.2z M1049.5,996.6c9.7-45.3,48-81.6,93.4-90.5c47.7-9.3,96.6,18.4,119.8,59.6
			c5.4,9.6,9.2,20.1,11.5,30.9c-69.9,0-139.9,0-209.8,0C1059.5,996.6,1054.5,996.6,1049.5,996.6z M1283.2,996.6c0-0.4,0-0.9-0.1-1.3
			c-8.5-42.6-41.2-77.7-81.5-92.6c12.7-18.5,32.3-30.8,54-36.1c22.4-5.5,46-1.6,66.4,8.5c45.2,22.4,67.5,72.5,65.1,121.3
			c0,0,0,0.1,0,0.1C1352.6,996.6,1317.9,996.6,1283.2,996.6z"/>
	</g>
	<g>
		<path fill="none" d="M1165.6,342.2c-7.8,1.1-15.8,2.3-23.4,0.5c-7.7-1.8-15-7.1-16.8-14.8c-1.6-6.7,1.3-13.6,4.8-19.5
			c3.5-5.9,7.8-11.5,9.5-18.2c0.2-0.8,0.4-1.6,0.5-2.3c0.4-2.5,0.4-5.1,0.2-7.6c-3.8-2.5-6.6-5-7.8-7.5
			c-17.7,7.8-35.4,15.6-53.1,23.3c-16.3,7.2-32.6,14.3-48.9,21.5c-21.7,9.5-45.5,21.1-68.5,15.5l-122.7,38.2
			c0.4,14.4,2.6,28.7,6.7,42.5c0.5,1.7,1,3.5,1.6,5.2c1.4,4.1,2.9,8.2,4.5,12.3c5.5,13.1,12.8,25.7,23,35.4c0.9,0.8,1.8,1.7,2.7,2.5
			c0.9,0.7,1.8,1.4,2.7,2.1c14.4,11.1,33.4,17.4,51.6,16.4c4.1-0.2,8.1-0.8,12.1-1.8c16.8-4.3,33.9-9.5,51-6.9
			c13.5,2.1,25.7,8.8,38.2,14.4c49.7,22.3,107.9,24,160.2,8.8c-14.5-13.9-24-32.9-26.6-52.8c-0.2-1.6-0.4-3.3-0.5-4.9
			c-0.7-10.2,0.3-20.3,1.7-30.5c0.9-7,2-13.9,2.9-20.9C1173,375.9,1173.7,357.3,1165.6,342.2z"/>
		<path fill="#4E1D41" d="M782.6,211.3c-0.2,0.7-0.4,1.4-0.7,2c4.1,1.6,8.2,2.9,12.6,3.5c11,1.4,22.7-2.7,29.7-11.2
			c7-8.5,8.6-21.4,3.1-31c-4.4-7.6-12.8-12.6-21.5-13.5c-8.7-0.9-17.7,2.1-24.6,7.5c-4.7,3.7-8.5,8.4-11.4,13.7
			c1.5,0.7,2.9,1.7,4.1,2.8C781.5,191.8,784.9,202,782.6,211.3z"/>
		<path fill="#DD4462" d="M769.1,185.7c7.7,7.4,11.1,18.9,8.8,29.4c-0.2,0.7-0.4,1.5-0.7,2.2c0.2,0,0.3,0,0.5-0.1
			c2-0.4,3.3-2,4.1-3.8c0.3-0.7,0.5-1.4,0.7-2c2.3-9.3-1.1-19.5-8.8-26.1c-1.2-1.1-2.6-2-4.1-2.8c-1.1-0.5-2.3-1-3.5-1.2
			c-1.4-0.2-2.8-0.2-4.1,0.2C764.8,182,767.1,183.7,769.1,185.7z"/>
		<path fill="#FA456D" d="M774.2,221.1c1.4-0.8,2.4-2.3,3-3.9c0.3-0.7,0.5-1.5,0.7-2.2c2.3-10.4-1.1-21.9-8.8-29.4
			c-2-1.9-4.3-3.6-7-4.3c-0.2,0-0.4-0.1-0.6-0.1c-0.3-0.1-0.6-0.1-0.9-0.1C769.4,192.5,774.3,206.8,774.2,221.1z"/>
		<path fill="#4E1D41" d="M695.5,188.3c4.2,2.2,5.8,7.3,3.8,11.6c-4.3,9.2-3,21.2,3.5,28.9c2.6,3.2,6.2,5.9,7.2,9.9
			c1.1,4.3-0.9,8.6-2.1,12.9c-1.2,4.2-1,9.7,2.8,11.9c3-5.9,7.1-11.8,12.6-15.5c4.3-2.9,9.8-5.1,14.5-1.7c1.8,1.3,3.1,3.2,3.8,5.3
			c1.6,4.8,0.1,9.9-2.2,14.2c-5.4,10.1-15.7,17.4-27,19.1c-0.7,1.8-1.5,4-2.6,6.3c2.1,3.5,4.2,7,6.6,10.2c8.6,2.2,18.6,0,25.7-5.7
			c8.4-6.7,13.2-16.9,17.7-26.7c6.6-14.5,13.4-29.3,14.3-45.2c0.1-0.9,0.1-1.9,0.1-2.8c0.1-14.4-4.8-28.7-13.6-40
			c-2.7-3.5-5.8-6.8-9.3-9.7c-15.2-12.7-36.5-17.7-55.7-13.1c-8.7,2.1-17.3,6.4-21.9,14.1c-2.1,3.5-3.1,7.4-3.3,11.4
			c1.8-1,3.7-1.9,5.6-2.7C682.7,182.7,689.3,185.2,695.5,188.3z"/>
		<path fill="#E95F48" d="M716.8,302.2c-0.1-0.2-0.3-0.4-0.4-0.6c-2.4-3.3-4.6-6.7-6.6-10.2c-2.3,4.7-5.8,9.6-12.3,11.5
			c-13.8,4.2-27.9,6.9-42.2,8.3c6.4,5.2,11.9,11.2,16.1,18.3c1.2,2,2.2,4.2,3.1,6.4C690.4,327.6,704.6,315.5,716.8,302.2z"/>
		<path fill="#FF7760" d="M709.7,291.3c1.1-2.2,1.9-4.4,2.6-6.3c11.3-1.7,21.6-9,27-19.1c2.3-4.4,3.8-9.4,2.2-14.2
			c-0.7-2.1-2-4-3.8-5.3c-4.7-3.4-10.2-1.3-14.5,1.7c-5.4,3.7-9.5,9.6-12.6,15.5c-3.8-2.2-4-7.7-2.8-11.9c1.2-4.2,3.2-8.6,2.1-12.9
			c-1-4-4.6-6.7-7.2-9.9c-6.5-7.8-7.7-19.8-3.5-28.9c2-4.3,0.4-9.4-3.8-11.6c-6.2-3.2-12.8-5.6-19.6-7.3c-1.9,0.8-3.7,1.7-5.6,2.7
			c-10.3,5.7-19,14.3-24.4,24.8c-4,7.7-6.2,16.1-8.4,24.4c-5.4,5.2-10.8,10.3-16.3,15.5c-1.1,1-2.2,2.1-2.7,3.6
			c-0.7,2.2,0.4,4.7,2.2,6.3c1.7,1.6,4,2.4,6.2,3.2c0.9,0.3,1.8,0.7,2.7,1.1c-3.3,10.1-7.7,21.5-5.8,31.7c0.5,2.5,1.3,4.9,2.6,7.3
			c6.3,11.1,16.6,10.8,27.6,9.8c0.4,0,0.8-0.1,1.2-0.1c14.3-1.4,28.4-4.2,42.2-8.3C703.9,300.9,707.4,296,709.7,291.3z"/>
		<path fill="#E95F48" d="M647.2,437.3c-3.1-1.1-5.8,2.3-7.5,5.2c-22.4,39.4-53.2,74.1-89.7,101.1c-4.3,3.2-9.2,6.4-14.5,6.2
			c-3.5-0.2-6.8-1.8-10-3.5c-4.6-2.4-9.2-4.8-13.8-7.2c0.5,0.5,0.9,1,1.4,1.5c7.7,7.8,16.2,15.3,26.6,18.7
			c40.2-30.4,78.1-64.2,109-104.1c1.5,0.8,2.9,1.8,4.2,2.8c-0.7-4.7-1.4-9.4-2.1-14.2C650.4,441.2,649.6,438.1,647.2,437.3z"/>
		<path fill="#FF7760" d="M663.5,377.3c-8.6,2.3-16.8,5.5-24.1,10.4c-10.9,7.3-19.1,17.8-27.2,28.1c-22.9,29.3-45.9,58.6-68.8,87.9
			c-27.7-30.6-57.7-61.6-85.4-92.1c6-7.5,6.6-19.7,5.4-29.2c-1.2-9.6-3.5-19.3-1.7-28.8c1.8-9.6,7.7-17.9,10.5-27.2
			c2.8-9.3,1.3-21.5-7.5-25.7c-13.5,9.6-25.2,20.5-32.3,35.5c0.6-9-0.2-19.7,0.4-28.7c0.2-3.3,0.4-6.8-1-9.8c-1.4-3-5-5.3-8.1-4
			c-4.5,41.7-7.8,86.3,7.8,125.1c5.3,13.1,12.6,25.2,20.1,37.3c17.9,29.1,36.3,58.2,60,82.8c4.6,2.4,9.2,4.8,13.8,7.2
			c3.1,1.6,6.4,3.3,10,3.5c5.4,0.3,10.2-3,14.5-6.2c36.5-27,67.2-61.6,89.7-101.1c1.6-2.9,4.3-6.2,7.5-5.2c2.5,0.8,3.2,3.9,3.6,6.5
			c0.7,4.7,1.4,9.4,2.1,14.2c3.5,2.8,6.1,6.2,8.2,10C658.5,440.1,657.3,405.5,663.5,377.3z"/>
		<path fill="#3E302D" d="M875.1,466.7c-10.3-9.7-17.6-22.3-23-35.4c-1.7-4-3.2-8.1-4.5-12.3c-17-2.5-49.9-13.9-56.7-26.5
			c-4.5-11.4-5.6-50.9-2.6-75.9c-2.3,0.9-4.6,1.9-6.9,2.9c-3.7,19.3-1.4,42.7,2,71.3c4,33.2-42.5,56.3-48.5,95.8
			c-1.4-0.1-2.7-0.2-4-0.3c-29.7-2.7-49.1-14.7-62.8-25.6c-4-31.3-4.6-57.3,1.4-84.7c-2,0.4-4,0.9-6,1.4c-6.2,28.3-5,62.9-2.4,90.7
			c2.9,5.3,4.7,11.5,5.8,17.8c2.4,12.6,3.3,25.9,10,36.8c6.7,10.9,19.3,17.7,32.1,18.2c8.9,0.3,17.4,3.6,24,9.6
			c2.5,2.3,5.1,4.5,7.7,6.8c27.4-3.1,54.2-12.7,77.2-27.9C841.7,513.4,861.5,491.7,875.1,466.7z"/>
		<path fill="#FF7760" d="M1140.6,212.1c-2-3.6-3.3-8.7-4.9-12.5c-4.2,1.7-7.3,5.8-8,10.2c-0.7,4.4,1,9.2,4.4,12.1
			c-3.7,5.7-4.3,12.5-3.4,19.3c9.8,1,19.5,2,29.3,3C1152.3,233.4,1146.5,222.7,1140.6,212.1z"/>
		<path fill="#FF7760" d="M1140,287.9c-0.1,0.8-0.3,1.6-0.5,2.3c-1.7,6.6-6,12.3-9.5,18.2c-3.5,5.9-6.4,12.8-4.8,19.5
			c1.8,7.7,9.2,13,16.8,14.8c7.7,1.8,15.7,0.6,23.4-0.5c8.1,15.2,7.4,33.7,5.5,50.8c-0.8,7-1.9,13.9-2.9,20.9
			c20.8-7.9,43.2-11.9,65.5-11.8c-11.7-27.6-24.1-55-37.1-82c-4.8-4.3-9.6-8.6-14.4-12.8C1166.5,305.6,1151.5,298.6,1140,287.9z"/>
		<path fill="#E95F48" d="M1140,287.9c11.5,10.7,26.5,17.7,42.1,19.3c4.8,4.2,9.6,8.5,14.4,12.8c-3-6.2-6-12.4-9.1-18.6
			c-8.4-4.4-33.8-12.3-47.2-21.1C1140.5,282.8,1140.4,285.4,1140,287.9z"/>
		<path fill="#E95F48" d="M1162.5,252.5c-1.5-2.8-3-5.6-4.5-8.4c-9.8-1-19.5-2-29.3-3c0.1,1,0.3,2,0.5,3.1c0.1,0,0.1,0,0.2,0
			C1140.5,247,1151.5,249.8,1162.5,252.5z"/>
		<path fill="#FF7760" d="M668.1,460.5c13.7,11,33.1,22.9,62.8,25.6c-0.5-3.1-1.4-6.1-3-8.8c-4.9-8.4-14.3-11.9-23.5-15.4
			c7.5-0.9,15.6,0.5,21.7,4.9c-2.1-16.6,3-33.9,12.3-47.9c-10.5,25-3.5,67.5-3.5,67.5c6-39.5,52.5-62.5,48.5-95.8
			c-3.4-28.6-5.8-52-2-71.3c-3.5,1.5-7.1,3.1-10.6,4.7c-8,3.7-17.2,4.1-25.3,0.7c-8.7-3.5-16.9-9-22.3-14.8
			c-2.3-2.5-4.4-5.1-6.4-7.8c-12.2,13.4-26.4,25.4-42.3,33.7c5.2,12.8,5.4,27.9-2,39.4c-1,0.2-2,0.4-3,0.6
			C663.5,403.2,664.1,429.2,668.1,460.5z"/>
		<path fill="#E95F48" d="M738.4,419c-9.3,14-14.4,31.2-12.3,47.9c-6.1-4.4-14.2-5.7-21.7-4.9c9.1,3.4,18.6,6.9,23.5,15.4
			c1.6,2.7,2.5,5.7,3,8.8c1.3,0.1,2.6,0.2,4,0.3C734.9,486.5,727.9,444,738.4,419z"/>
		<path fill="#4EC5B6" d="M1225.9,489.5c-22.5-7.9-43.1-22.1-58.9-40.2c2.6,19.9,12.1,38.9,26.6,52.8
			C1203.4,500.5,1216.3,495.2,1225.9,489.5z"/>
		<path fill="#FF7760" d="M790.9,392.5c6.8,12.7,39.7,24.1,56.7,26.5c-0.6-1.7-1.1-3.4-1.6-5.2c-12.1-16.5-18.8-36.9-18.9-57.3
			c38.5,2.4,78-17.6,115.5-26.6c18.5-4.5,37.5-6.9,56.2-10.8c26.2-5.5,53.9-13.8,80.6-23c17.7-7.8,35.4-15.6,53.1-23.3
			c1.2,2.5,4.1,5.1,7.8,7.5c13.4,8.8,38.9,16.7,47.2,21.1c0,0,0,0,0,0l5.2,10.6c0.9-4.5,2.2-9,3-13.5c0.4-2,0.8-4.1,0.3-6.1
			c-0.4-2-2-3.9-4-4.1c1.7-2.6,3.3-5.4,2.2-8.3c-0.8-2-2.8-3.1-4.6-4.2c1.6-1.2,2.5-3.6,1.9-5.5c-0.6-1.9-2.6-3.2-4.6-3.2
			c1.8-2,1-5.4-1-7.3s-4.7-2.6-7.4-3.3c-5.4-1.4-10.7-2.7-16.1-4.1c-11-2.8-22-5.5-33-8.3c-0.1,0-0.1,0-0.2,0c-2.9-0.7-6-0.4-8.8,1
			c-22.9,11.1-48.6,17-73.4,22.5c-48.3,10.8-79.5,12.8-128.7,18.4c-22.7,2.6-46.6,1.5-67.9,10c-21.3,5.4-42.1,12.3-62.3,20.5
			C785.2,341.6,786.4,381,790.9,392.5z"/>
		<path fill="#E95F48" d="M962,333.1c23,5.6,46.8-6,68.5-15.5c16.3-7.2,32.6-14.3,48.9-21.5c-26.7,9.2-54.4,17.5-80.6,23
			c-18.7,3.9-37.6,6.3-56.2,10.8c-37.5,9-77,29-115.5,26.6c0.1,20.5,6.9,40.8,18.9,57.3c-4-13.8-6.3-28.2-6.7-42.5L962,333.1z"/>
		<path fill="#FF7760" d="M900.3,570.7c18.7-23.6,29.9-53,31.8-83.1c-18.2,1.1-37.2-5.2-51.6-16.4c-19.7,49.1-60.1,89.5-108.8,110
			c19.7,14,40.5,26.4,62.2,36.9C859.8,608.9,883.1,592.3,900.3,570.7z"/>
		<path fill="#4EC5B6" d="M1022.1,604.3c1.7-11.3,7.4-21.5,11.6-32.2c4.2-10.6,7.4-23.2,2.6-33.7c-12.5,26.4-25.8,53-38.7,79.4
			c-6.8,14-20.4,23.3-35.9,24.6c-26.6,2.2-52.9,4.4-79.9,6.5c11.8,8.3,27.4,8.3,41.7,6.8c14.3-1.5,29.1-4.1,42.9,0
			c6.1,1.8,11.7,4.8,17.8,6.5c2.8,0.8,5.8,1.2,8.8,1.2c0.7-6.8,1.5-13.5,2.4-20.2c8.3-2.4,16.8-4.7,25.5-6.9
			c0.5-2.8,0.7-5.6,0.8-8.4C1021.8,620,1020.9,612.1,1022.1,604.3z"/>
		<path fill="#59D4BC" d="M1250.8,559.7c14-13.4,22.4-32.1,24.3-51.3c-1.2-4-2.6-7.9-4-11.7c-11.6-31.9-24.1-63.4-37.4-94.6
			c-22.3-0.1-44.6,3.9-65.5,11.8c-1.4,10.1-2.4,20.3-1.7,30.5c0.1,1.6,0.3,3.3,0.5,4.9c15.8,18.1,36.5,32.4,58.9,40.2
			c-9.5,5.7-22.5,11-32.3,12.5c-52.3,15.3-110.4,13.6-160.2-8.8c-12.5-5.6-24.7-12.4-38.2-14.4c-17.1-2.6-34.3,2.6-51,6.9
			c-4,1-8,1.6-12.1,1.8c-1.9,30-13.1,59.5-31.8,83.1c-17.1,21.6-40.5,38.2-66.4,47.5c6.9,3.3,13.8,6.5,20.9,9.4
			c8.6,98,29.8,196.1,58.5,290.2c12.4,40.7,16.4,83.8,15.4,127c17.9,5.5,37,7.6,55.7,6c3.8-15.2,7.3-30.5,9.2-46
			c3.7-30.6,0.6-63.4-17-88.7c10.7-81.3,8-170.1,16.6-252.6c-2.9,0.1-6-0.4-8.8-1.2c-6.1-1.7-11.8-4.7-17.8-6.5
			c-13.8-4.1-28.5-1.4-42.9,0c-14.3,1.5-29.9,1.5-41.7-6.8c26.9-2.2,53.2-4.4,79.9-6.5c15.5-1.3,29.1-10.6,35.9-24.6
			c12.9-26.5,26.2-53.1,38.7-79.4c4.7,10.4,1.5,23-2.6,33.7c-4.2,10.6-9.9,20.9-11.6,32.2c-1.1,7.8-0.3,15.7-0.5,23.6
			c-0.1,2.8-0.3,5.6-0.8,8.4c33.8-8.6,70.5-16.1,106.6-23.9c20.3-6.9,40.6-13.8,60.8-20.7C1210.7,584.1,1233.8,576.1,1250.8,559.7z"
			/>
		<path fill="#4EC5B6" d="M1275.1,508.4c-1.9,19.2-10.3,37.9-24.3,51.3c-17,16.3-40.1,24.4-62.5,32c-20.3,6.9-40.6,13.8-60.8,20.7
			c31.9-6.9,63.2-13.9,91.5-22.1c22.9-6.6,48.6-15.7,57.6-37.7C1282.3,538.6,1279.7,523.2,1275.1,508.4z"/>
		<path fill="#FF7760" d="M927.8,1062.8c-1.4,25.1-4.4,50.1-8.3,74.6c-3.3,20.5-9.7,40.9-22.5,57.2c-12.8,16.3-32.6,28-53.3,27.2
			c-2.6,1.3-7.5,2.1-10.1,3.5c1.1,5.8,5.4,10.8,10.9,12.9s12,1.1,16.7-2.4c21.4,18.6,50.5-2.9,74.1,0.8c9.8,1.5,21.7,7.6,31.3,2.8
			c8.2-4.1,17.4-11.7,17.6-21.4c0.3-11-5.2-21.3-9-31.7c-10.5-28.9-7.9-61-1.6-91.2c2.4-11.7,5.4-23.2,8.4-34.8
			C964.4,1065.3,945.7,1066.2,927.8,1062.8z"/>
		<path fill="#E95F48" d="M928.6,1044.8c-0.1,6-0.4,12-0.7,17.9c17.9,3.5,36.6,2.6,54-2.6c0.8-3.1,1.6-6.2,2.4-9.3
			C965.5,1052.4,946.5,1050.4,928.6,1044.8z"/>
		<path fill="#E95F48" d="M880.5,471.3c-0.9-0.7-1.8-1.4-2.7-2.1c-0.9-0.8-1.8-1.6-2.7-2.5c-13.7,25-33.4,46.7-57.2,62.4
			c-23,15.2-49.8,24.8-77.2,27.9c9.9,8.6,20.3,16.7,31,24.3C820.4,560.7,860.8,520.4,880.5,471.3z"/>
	</g>
</g>
</svg>
