<?xml version="1.0" encoding="utf-8"?>
<!-- Generator: Adobe Illustrator 18.0.0, SVG Export Plug-In . SVG Version: 6.00 Build 0)  -->
<!DOCTYPE svg PUBLIC "-//W3C//DTD SVG 1.1//EN" "http://www.w3.org/Graphics/SVG/1.1/DTD/svg11.dtd">
<svg version="1.1" id="Layer_1" xmlns="http://www.w3.org/2000/svg" xmlns:xlink="http://www.w3.org/1999/xlink" x="0px" y="0px"
	 viewBox="0 0 1700 1400" enable-background="new 0 0 1700 1400" xml:space="preserve">
<g>
	<rect fill="#FFE7DF" width="1700" height="1400"/>
	<path fill="#FFF9F8" d="M317.9,407.9c1.8-21.7-11.3-41.5-18.3-62.1c-23-68,27.9-145.9,96.3-167.9s145,2.2,202.1,45.7
		c41.3,31.5,78,74.1,128.9,84.6c57.1,11.8,112.9-20.6,163.4-49.7c50.5-29.1,110.5-57,165-36.3c58.1,22,87.2,91.4,144.8,114.6
		c52.4,21.1,116.7-1.2,165.8,26.6c31,17.6,49.5,53.7,48.7,89.3c-0.8,35.6-19.5,69.7-47.2,92.1c-33.9,27.5-84.7,44.9-91.6,88
		c-5.4,33.9,21.2,64.1,48.1,85.4s58.2,41.8,68.6,74.5c8.4,26.4,0.8,55.9-13.9,79.4c-14.7,23.5-35.8,42.3-56.6,60.5
		c-89.2,78-205.8,161.2-324.5,90.4c-39.7-23.7-78.6-54.8-124.8-56.8c-30.2-1.3-61.7,10.2-89.9-0.5c-35.5-13.5-52.2-57.2-87.5-71.4
		c-35.6-14.4-76,6.8-103.1,34c-27.1,27.2-48.1,61.1-80.2,82.1c-38.7,25.2-91.3,27.2-131.8,5c-40.5-22.2-67-67.7-66.5-113.9
		c0.5-48.8,28.2-92.4,44.9-138.2c11.3-30.9,17.2-68.9,5-100.5c-13.7-35.4-49.5-45.1-78.8-65.3c-26.4-18.2-50.4-48-44-79.4
		C249.9,473.1,314.1,453.6,317.9,407.9z"/>
	<ellipse fill="#FFC7B8" cx="837.8" cy="1144.3" rx="623.2" ry="85.9"/>
	<g>
		<path fill="#FF6E48" d="M968.3,344.2c-24.3-0.5-48.4-6.4-70.2-17.2c12.9-26,1.8-60.8,15.9-86.2c6.2-11.1,17-19.6,29.3-22.9
			c12.3-3.3,25.9-1.5,36.9,4.9c18.4-13.5,45.7-15.7,67-7.3c21.3,8.4,37.6,28.3,41.8,50.8c3.7,19.8-1.6,40.4,0.6,60.4
			c1.7,15.6,8,30.4,9.3,46.1c1.4,16.8-3.3,34.3-14,47.3s-27.5,21.2-44.3,20.3c-21.2-1.1-39.7-15.9-50.9-34
			C978.4,388.3,973.2,364.8,968.3,344.2z"/>
		<g>
			<path fill="#FC7575" d="M724.6,786.9c-80.7,3.6-162.1,13.4-242,10.6c-68.7-2.4-137-13.8-202.9-33.7c-5.3-6.4-14.7-11.9-22.2-15.3
				c-7.5-3.4-17.6-2.4-22.3,4.5c-4.6,6.9-2.4,16.3,1,23.9c12.2,27.9,36.6,49.8,65.2,58.7c17.2,5.3,36.8,6.7,49.8,19.3
				c13.2,12.8,16.6,34.8,32.1,44.4c12,7.4,27.9,4.8,39.8-2.7c11.9-7.5,20.7-19.2,29.2-30.6c37.3-11.4,80.5-8.3,117.4,4.4
				c36.9,12.6,72.5,29.8,110.8,36.9c15.7,2.9,31.7,4,47.6,3.4C710.9,872.1,709.1,826.4,724.6,786.9z"/>
			<path fill="#4160CF" d="M1382.9,823.9c-38.8-25.8-84.6-38.8-130.5-44.3c-45.9-5.5-92.4-3.7-138.6-2c-91.6,3.5-183.2,7-274.8,10.5
				c-37.8-3.2-76-2.9-114.4-1.2c-15.5,39.5-13.7,85.2,3.4,123.9c38.2-1.4,76-12.7,108.6-33c116,32.5,231,59.3,347,91.9
				c33.6,9.4,68.5,18.9,102.8,13c33.1-5.7,63.5-26.3,81.5-55.3C1385.9,898.5,1391.9,857,1382.9,823.9z"/>
		</g>
		<g>
			<path fill="#FC7575" d="M1116.3,908c-0.7-40.1-7.1-79.5-15-118.7h-67.1c5.8,45.8,11.7,91.6,17.5,137.5
				c1.8,14.5,3.7,29.1,4.8,43.7c16.6,6.8,33.7,12.5,51.1,17C1110.9,962,1117,943.5,1116.3,908z"/>
			<path fill="#FF8B8B" d="M1070.2,608.7c-0.8-13.1-1.5-26.4-5.6-39c-4-12.5-11.9-24.4-23.6-30.3c-11.7-5.9-29.3-4.4-37.8,5.7
				c10.4,81.4,20.7,162.8,31.1,244.2h67.1C1089.4,729.4,1074.1,670,1070.2,608.7z"/>
			<path fill="#FF8B8B" d="M1107.6,987.5c-17.4-4.5-34.4-10.2-51.1-17c2,24.8,1.9,49.6-3.4,73.8c-3.7,16.6-28.3,19.1-45,22.4
				c-19.5,4-39,7.9-58.6,11.9c3.4,6.6,5,10.3,12.2,12c7.2,1.7,14.7,1.3,22,1c27.4-1.4,44-14.5,82.3-4.2c-6.1,1.9-11.3,4.9-17.4,6.8
				c-4.7,1.5-9.7,3.2-13.1,6.8c-3.4,3.6-4.6,9.8-1.2,13.4c19.7-7.9,40.2-13.5,59.9-21.4c8.5-3.4,17.6-7.4,21.8-15.5
				c3-5.7-10.6-46.4-10.7-52.8C1105.3,1009.9,1106.2,998.1,1107.6,987.5z"/>
		</g>
		<g>
			<path fill="#FC7575" d="M1045.1,442.4c-25.7,16.3-55.4,24.9-85.8,27c13.4,4.3,28.1,8.9,38.4,18.2c19-8.9,36.4-20.5,52.1-33.9
				C1047.7,450.2,1046.1,446.5,1045.1,442.4z"/>
			<path fill="#FF9A99" d="M1091.6,485.6c-15.6-8.2-33-17.5-41.8-31.9c-15.8,13.5-33.1,25-52.1,33.9c1.4,1.3,2.7,2.7,4,4.1
				c3.7,4.5,6.6,10.5,8.5,17.1c9-8,22.2-11.9,34.7-12.4c17.3-0.6,34.4,3.8,51.7,4c6.1,0.1,12.3-0.6,18.3-2
				C1107.1,494,1099.4,489.7,1091.6,485.6z"/>
			<path fill="#FC7575" d="M1286.1,646.8c-1-1.2-1.9-2.4-2.9-3.6c-32.3,46.6-86.2,78-142.8,82.1c6.3,8.4,11,18.1,14.1,28.4
				C1213.5,747.8,1258,696.8,1286.1,646.8z"/>
			<path fill="#FF9A99" d="M1286.1,646.8c-28.1,50-72.5,100.9-131.6,106.9c0.5,1.6,0.9,3.2,1.3,4.8c5.1,20.4,2.3,42.6-7.7,61.1
				c66.6,41.1,170,51.6,243.1,23.7C1369.1,772.1,1332.9,705.3,1286.1,646.8z"/>
		</g>
		<path fill="#FC7575" d="M1075.3,1124.4c8-0.2,16.2-0.4,23.8-3.1s14.5-8.5,16.5-16.3c-22.8,3-46,3.3-68.9,0.9
			c-0.4,4.5,1.3,9,4.4,12.2C1057,1124.4,1066.7,1124.6,1075.3,1124.4z"/>
		<g>
			<path fill="#002156" d="M1176.1,660.4l-4.4,2.2c-11.1,5.6-22.8,11.4-35.3,11.6c-7.9,0.1-15.8-2-23.7-1.3
				c-9,0.8-17.1,5.2-25.7,8.1c-18.2,6-38.7,4.6-55.8-3.9c-10.4-5.1-19.4-12.8-26.4-22c1.1,11.6,4.3,22.8,10.9,32.4
				c11,15.9,30.1,24.8,49.3,27.1c19.2,2.3,38.6-1.4,57.3-6.4c1.6,1.1,3.2,2.2,4.7,3.4c20.9-10.3,40.2-23.5,57.4-39.2
				C1190.7,666.6,1183.7,656.5,1176.1,660.4z"/>
			<path fill="#002D84" d="M1114.7,498.4c-6,1.5-12.2,2.1-18.3,2c-17.3-0.2-34.4-4.6-51.7-4c-12.4,0.4-25.6,4.3-34.7,12.4
				c3.8,13.7,3.2,29.8-3.2,40c7.1,22.5,2.4,46.7-0.7,70.1c-1.6,11.8-2.5,24.2-1.4,36.1c6.9,9.2,16,16.9,26.4,22
				c17.2,8.5,37.7,9.9,55.8,3.9c8.5-2.8,16.7-7.3,25.7-8.1c7.9-0.7,15.7,1.5,23.7,1.3c12.5-0.2,24.1-5.9,35.3-11.6l4.4-2.2
				c7.6-3.9,14.6,6.2,8.3,12c-17.1,15.7-36.5,29-57.4,39.2c5.1,4,9.5,8.6,13.4,13.8c56.6-4.1,110.5-35.5,142.8-82.1
				C1236.2,585.4,1178.9,535.9,1114.7,498.4z M1120,618.7c-4.6,15.3-18.8,26.8-34.5,29.8c-15.7,2.9-32.4-2.2-44.7-12.4
				c-12.3-10.1-20.5-24.8-24.2-40.4c-5.6-23.9-0.7-50.1,13.1-70.3c3.2-4.7,7.1-9.2,12.3-11.3c7.1-2.9,15.2-0.7,22.5,1.8
				c16.6,5.7,33.4,13.8,43.1,28.4c7.6,11.4,9.9,25.5,12.1,39C1121.7,595,1123.5,607.3,1120,618.7z"/>
			<path fill="#002156" d="M1107.8,544.2c-9.7-14.6-26.5-22.7-43.1-28.4c-7.3-2.5-15.3-4.6-22.5-1.8c-5.3,2.1-9.1,6.7-12.3,11.3
				c-13.9,20.2-18.8,46.4-13.1,70.3c3.7,15.5,11.8,30.3,24.2,40.4c12.3,10.1,29,15.3,44.7,12.4c15.7-2.9,29.9-14.5,34.5-29.8
				c3.4-11.4,1.6-23.7-0.2-35.5C1117.7,569.7,1115.4,555.6,1107.8,544.2z"/>
		</g>
		<g>
			<path fill="#FF9A99" d="M1118.5,746.2c-5.3-36.4-3.7-73.5-7.7-110c-4.3-39.2-14.6-78.8-31.2-115c-10-21.9-34.4-33.2-57.6-27.1
				c-0.3,0.1-0.6,0.2-0.9,0.2c-27.9,7.3-43.7,36.8-34.4,64.1c25.4,74,49.3,150.8,70.2,228.6c23.1-0.9,46.3-1.8,69.4-2.7
				C1123.1,771.6,1120.4,759,1118.5,746.2z"/>
			<path fill="#FF8B8B" d="M1144.4,851.7c-5.6-22.6-12.5-44.9-18.1-67.5c-23.1,0.9-46.3,1.8-69.4,2.7
				c18.4,68.5,34.6,137.6,47.5,205.9c20.1,8.3,40.6,15.4,61.6,21.2C1162.9,959.3,1157.4,904.8,1144.4,851.7z"/>
			<path fill="#FF9A99" d="M1166,1014c-20.9-5.8-41.5-12.9-61.6-21.2c6.6,34.7,12.3,69.2,17.1,103.4c-36,19-74.4,33.7-114,42.8
				c1.1,6.4,8,10.3,14.4,11.3c6.4,0.9,12.8-0.8,19-2.6c11.5-3.2,23-6.4,34.5-9.7c-17.8,10.6-35.7,22.5-53.6,33.1
				c8.3,13.1,27,19.7,42.4,18.2c15.4-1.5,29.6-8.9,42.7-17.1c13.2-8.2,25.7-17.4,38.3-26.6c9-6.5,18.2-13.4,23.7-23
				c5.5-9.6,7.6-25.2,0.2-33.4C1168.3,1064.2,1167.4,1039.1,1166,1014z"/>
		</g>
		<g>
			<path fill="#FF9A99" d="M561.5,875c41.1,8.7,81.8,20.8,123.6,24.6c-2.3-8-3.8-16.3-4.5-24.6c-1.8-23.2,3.2-46.9,14.2-67.4
				c-75,4.1-150.4,12-224.4,9.5c-70.2-2.4-140.2-13.8-207.6-33.7c-5.4-6.4-15-11.9-22.7-15.3c-7.7-3.4-18-2.4-22.8,4.5
				c-4.8,6.9-2.4,16.3,1,23.9c6.2,13.8,15.4,26.2,26.7,36.2c9,3.2,18.5,5.3,27.6,7c25.7,4.7,54.2,9.2,71.1,29.3
				c10,12,14.2,27.6,20.8,41.8c1.3,2.8,2.8,5.5,4.4,8.2c12.2,7.4,28.5,4.8,40.7-2.7c4-2.5,7.6-5.4,11.1-8.6
				c5.8-9.9,9.9-20.9,11.9-32.3C474.8,863.6,518.3,865.8,561.5,875z"/>
			<path fill="#FC7575" d="M561.5,875c-43.1-9.2-86.6-11.4-129.1,0.4c-2,11.4-6.1,22.3-11.9,32.3c7-6.6,13-14.3,18.8-22
				c38.1-11.4,82.3-8.3,120,4.4c37.7,12.6,74.2,29.8,113.3,36.9c8.6,1.6,17.2,2.6,25.9,3.2c-5.8-9.5-10.4-19.8-13.5-30.5
				C643.2,895.8,602.6,883.7,561.5,875z"/>
			<path fill="#FC7575" d="M343.6,869c-16.8-20-45.3-24.5-71.1-29.3c-9.1-1.7-18.6-3.9-27.6-7c11.5,10.2,25.2,18,39.9,22.5
				c17.6,5.3,37.7,6.7,51,19.3c13.5,12.8,16.9,34.8,32.8,44.4c0,0,0.1,0,0.1,0c-1.6-2.7-3.1-5.4-4.4-8.2
				C357.8,896.6,353.6,880.9,343.6,869z"/>
			<path fill="#4160CF" d="M1246.2,963.4C1099.5,947.7,956,913,815.9,866.9C782,895,735.1,903.1,691.2,900c-2-0.1-4.1-0.3-6.1-0.5
				c3.1,10.7,7.7,21,13.5,30.5c46.6,2.9,94-8.5,133.9-32.7c118.6,32.5,236.3,59.3,354.9,91.9c34.4,9.4,70.1,18.9,105.2,13
				c33.2-5.6,63.7-25.5,82.3-53.6c-12.1,7-25.7,11.8-39.4,14.6C1306.1,969.1,1275.9,966.6,1246.2,963.4z"/>
			<path fill="#4E89F7" d="M1391.2,843.4c-39.7-25.8-86.5-38.8-133.5-44.3c-47-5.5-94.5-3.7-141.8-2c-93.7,3.5-187.4,7-281.1,10.5
				c-46.3-3.8-93.1-2.7-140.1-0.1c-10.9,20.5-16,44.2-14.2,67.4c0.6,8.3,2.2,16.6,4.5,24.6c2,0.2,4.1,0.3,6.1,0.5
				c44,3,90.8-5,124.7-33.2c140.2,46.1,283.6,80.8,430.3,96.5c29.7,3.2,59.9,5.7,89.2-0.2c13.7-2.7,27.3-7.6,39.4-14.6
				c0.4-0.6,0.8-1.1,1.1-1.7C1394.4,918,1400.4,876.5,1391.2,843.4z"/>
		</g>
		<path fill="#FF9A99" d="M1028.2,416.5c8.2,1.9,17-2.5,21.9-9.3s6.4-15.6,6-24c-0.2-4.4-1-8.8-3.1-12.7c-2.1-3.9-5.6-7.1-9.9-8
			c-4.4-0.9-9,0.6-12.5,3.4c-3.5,2.8-5.9,6.7-7.8,10.8c-4.9,10.6-6.5,23.5-3.9,34.9c-5.6-5.6-9.1-13.1-11.2-20.8
			c-2.1-7.7-1.7-17.4-2.4-25.4c-9-7.2-14.6-18.1-14.6-29.6c-8-0.7-16.3-2.2-24.3-3c0.9-11.8,2.1-23.6,3-35.4
			c-4.6,11.3-7.8,24-7.2,36.3c-17.8,0.3-35.6-2.7-52.4-8.5c0.1,1.4,0.1,2.9,0.2,4.3c0.8,17.2-0.6,36.3-13,48.2
			c-5.1,4.9-12.2,9.1-13.1,16.1c-1,7.7,8.5,14.4,15.4,11c4.7,14.3,8.1,30.3,12.8,44.7c3.2,9.9,7.1,20.7,15.9,26.3
			c9.7,6.2,22.3,4.2,33.5,1.9c31-6.3,63.8-14.7,85.6-37.5c-1.3-0.7-2.7-1.5-3.9-2.4C1036.3,432.7,1030.9,424.7,1028.2,416.5z"/>
		<path fill="#FF6E48" d="M1155.3,374.6c-1.8,13-15.9,21.7-29,20.9c-13.1-0.8-24.7-9-33.2-18.9c-22.8-26.4-27.1-67.2-10.5-97.8
			c7.4-13.6,19.4-25.7,34.6-28.9c15.2-3.2,33.1,5.2,37,20.2c5.2,20.3-15.6,39.7-13.1,60.6C1142.9,346.1,1157.4,359.1,1155.3,374.6z"
			/>
		<path fill="#FC7575" d="M1042,377c-4.2,2-7.6,5.4-9.5,9.6c-1.9,4.2-2.3,9-1,13.5c0.4,1.3,1,2.7,2,3.6c1,0.8,2.3,1.1,3.5,0.9
			c1.2-0.1,2.4-0.7,3.4-1.4c1.9-1.4,3.3-3.5,3.8-5.8s0.2-4.8-0.9-6.9c-0.6-1.2-1.6-2.4-2.8-3.1c-1.2-0.7-2.7-1-4-0.6
			c-0.1-1.9,0.6-3.7,1.7-5.3S1040.7,378.4,1042,377z"/>
	</g>
</g>
</svg>
