<?xml version="1.0" encoding="utf-8"?>
<!-- Generator: Adobe Illustrator 18.0.0, SVG Export Plug-In . SVG Version: 6.00 Build 0)  -->
<!DOCTYPE svg PUBLIC "-//W3C//DTD SVG 1.1//EN" "http://www.w3.org/Graphics/SVG/1.1/DTD/svg11.dtd">
<svg version="1.1" id="Layer_1" xmlns="http://www.w3.org/2000/svg" xmlns:xlink="http://www.w3.org/1999/xlink" x="0px" y="0px"
	 viewBox="0 0 1700 1400" enable-background="new 0 0 1700 1400" xml:space="preserve">
<g>
	<rect fill="#5BB697" width="1700" height="1400"/>
	<g>
		<ellipse fill="#489B7D" cx="850" cy="1033.4" rx="747.1" ry="68.9"/>
		<g>
			<path fill="#173027" d="M1149,637.7c0.2-9.5-2.9-18.8-4.2-28.2c-1.2-9.5,0-20.1,7-26.6c9.1-8.4,24.3-6.6,33.6-14.8
				c11.3-9.9,7.9-28.1,13.1-42.1c4.1-10.7,13.9-19.1,25.1-21.4c11.3-2.3,23.6,1.6,31.5,9.9c18.6-19.7,49.7-26.4,74.8-16.1
				s42.5,36.9,41.9,64c-0.4,17.3-7.2,35.6,0.1,51.3c5,10.6,15.3,17.3,24.3,24.9c8.9,7.5,17.4,17.9,16.1,29.5
				c-1.3,11.1-11.3,19.8-12.4,30.9c-1.4,14,11.1,24.8,20,35.7c23.5,28.6,24.5,73.3,2.3,102.9c-22.1,29.6-65.3,41.3-99.4,26.9
				c-20.7-8.7-38.7-26-61.1-26.8c-14.8-0.5-28.7,6.4-42.7,11.3c-14,4.8-30.6,7.3-42.8-1.1c-12.9-8.9-16.2-26.7-26.6-38.5
				c-17.7-20.1-53.2-19.9-66-43.5c-8.1-14.9-3.1-34,6.6-47.9c9.8-13.9,23.7-24.3,35.7-36.3C1138.1,669.7,1148.7,654.7,1149,637.7z"
				/>
			<path fill="#EF918A" d="M1217,972c3.7-0.6,8.4-0.5,10,2.9c1.1,2.3,0,5.1-1.9,6.8c-1.9,1.7-4.4,2.4-6.8,3
				c-11.3,2.5-23.3,1.7-34.2-2.2C1194.5,977.3,1205.6,973.8,1217,972z"/>
			<path fill="#EF918A" d="M1263.8,726.7c-9.4-4-16.6-11.4-22.9-19.6c1.8-0.9,3.3-2.6,4.2-4.4c1.3-2.6,1.6-5.5,1.9-8.4
				c1-8.9,2-17.9,3-26.8c14.8,4.1,31.5,6.1,46.8,4.6c-1.5,8-3,16.1-2.8,24.3c0.2,8.2,2.2,16.5,7.1,23c0.6,0.8,1.2,1.5,1.8,2.2
				C1291.9,729.8,1276.5,732.1,1263.8,726.7z"/>
			<g>
				<path fill="#F4B5B1" d="M1349,961.5c-4.7-9.4-5.1-20.3-5.3-30.8c-1.7-64.4-3.3-128.9-5-193.3c30.9,8.3,52,37.1,50.3,69.2
					l-6.7,142.4l101.6,47.4c24.6,1.7,37.5,5.1,62.1,6.8c10.4,0.7,22.4,2.4,26.7,12.7c2.5,6,1,12.9-3.1,18
					c-7.7,9.6-20.4,11.1-31.8,9.2c-10.1-1.7-10.2-6.4-17.9-10.7c-1.3-0.8-3.1-0.4-4.5,0c-5.9,1.6-5.1,8.2-2.1,11.9
					c2.5,3,6.1,4.8,8.8,7.6c2.7,2.8,4.6,7.2,2.5,10.5c-9.8,0.8-19.1-4.9-25.4-12.4c-6.2-7.6-11.7-19.4-15.3-28.5l-80.7-22.3
					c-8.9-3.7-17.6-7.9-26.1-12.6C1365.9,980.3,1354.7,972.9,1349,961.5z"/>
				<path fill="#EF918A" d="M1337.5,737.2c0.4,0.1,0.8,0.2,1.2,0.3c1.7,64.4,3.3,128.9,5,193.3c0.3,10.5,0.6,21.4,5.3,30.8
					c5.7,11.4,16.9,18.8,28,25c8.5,4.7,17.2,8.9,26.1,12.6l-34.1-9.4c-22.8-6.3-38.6-27.1-38.6-50.8V821L1337.5,737.2z"/>
			</g>
			<g>
				<path fill="#284E41" d="M475.5,991.7c-2.4-10.4-3.1-21.2-1.6-31.8c2.1-15.4,8.6-30.2,18.2-42.4c1.6-0.5,3.2-1,4.8-1.4
					c53.6-15.3,113-9.3,162.5,16.5c84.7-38.3,177-65.4,268-84.2c-10.6-35.8,0.6-77.9,20.9-109.3c20.2-31.4,48.9-56.3,77.2-80.6
					c26.2-22.6,52.4-45.2,78.6-67.8c-4.9-34.4,4-69.1,19.7-100.1c16.6-32.9,42.9-58.7,70.1-84c22.6,0.3,45.2,11.7,62.3,31.7
					c-2.4,4.1-4.8,8.3-7.1,12.4c-27.1,47-47,95.7-56.3,149.1c-56.2,90.3-78.3,130.7-108.3,200.8c-42.7,40.8-56.9,113.9-18.7,170.7
					c-134.8,12.9-270.5,14.8-406,17.1C598.3,989.4,536.9,990.5,475.5,991.7z"/>
				<path fill="#172F26" d="M659.7,988.3c135.5-2.3,271.2-4.2,406-17.1c3.1,4.7,6.6,9.2,10.5,13.6c-1.4,0.2-2.8,0.4-4.3,0.5
					c-90.3,11-178.5,23.1-269.5,23.4c-106.9,0.3-213.7,0.7-320.6,1c-2.7-5.8-4.9-11.8-6.3-18.1C536.9,990.5,598.3,989.4,659.7,988.3
					z"/>
				<path fill="#F4B5B1" d="M475.5,991.7c-10.9,0.2-21.8,0.4-32.7,0.6c-60.7,1.2-121.5,2.5-182.2,3.8c-40.3,0.9-82.4,2.2-119.9,15.3
					c-6.1,0.1-12.2,0.2-18.2,0.2c6.4-22,28.2-41,51.1-42.8c19-1.4,39.2,6.5,56.6-1.3c11.8-5.3,19.4-16.8,27.6-26.8
					c8.2-10,19.4-19.6,32.3-18.8c15.6,1,26.3,20.8,32.5,35.1c28.9,9.4,60.6,1.8,89.3-8.3c27.1-9.5,52.9-22.8,80.3-31.3
					c-9.6,12.2-16.1,27-18.2,42.4C472.4,970.5,473,981.3,475.5,991.7z"/>
				<path fill="#EF918A" d="M260.5,996.1c60.7-1.3,121.5-2.6,182.2-3.8c10.9-0.2,21.8-0.4,32.7-0.6c1.5,6.2,3.6,12.3,6.3,18.1
					c-102,0.3-204,0.6-306.1,0.9c-11.7,0-23.4,0.4-35.2,0.7C178.1,998.4,220.2,997,260.5,996.1z"/>
			</g>
			<path fill="#F4B5B1" d="M1257.5,572.2c5.2,17.1,17.7,31.9,33.7,39.9c-7.7-12.1-13.6-24.5-18.4-38c18.1,29.3,45.4,52.8,76.8,66.8
				c-6,15.9-14.6,29.8-24.8,44.1c-9.8,13.7-33.1,26.5-49.9,28.2c-16.7,1.7-35-16.3-42.8-29.4c-8.8-14.9-12.1-32.4-13.9-49.6
				c-0.9-8.4-1.3-17-1.1-25.5C1232.9,599.8,1246.9,586.9,1257.5,572.2z"/>
			<g>
				<path fill="#B2D7D9" d="M1121.1,833.7c29.5-25.3,52.9-57.5,68.1-93.3c11.7-13.7,21.3-29.3,27.9-46.5c2.6,3.6,6.1,6.7,9.9,9.2
					c-6.2,23.3-16.5,42.5-27.1,67c18.5,13.2,37.5,38.6,45.7,59.8c26.3,6.4,55.1-5.8,73.2-25.9c1-23.7,1.9-47.4,2.9-71.1
					c5.1,1.8,10.5,3.1,15.7,4.2c-1,42.6-2,85.1-4.3,127.6c-0.7,12-1.6,24.5-8.1,34.6c-3.7,5.7-8.9,10-14.9,13.2
					c-5.9,2-12.1,3-18.3,2.6c-14.2-0.7-27.8-8-36.3-19.3c-2.6-3.5-5-7.6-9.1-9.2c-4.7-1.9-9.9,0-14.9,1.2c-16,3.8-33-0.6-47.4-8.6
					c-14.3-8-26.4-19.4-38.4-30.7c18.5,27.8,44.2,50.7,73.9,65.8c8.1,4.1,16.5,7.6,25,10.5c-0.4,0.3-0.9,0.6-1.3,0.8
					c-31.3-4.1-61.4-17.9-84.8-39.2C1142.6,871.9,1129.8,853.7,1121.1,833.7z"/>
				<path fill="#6EACAD" d="M1145.8,848.6c11.9,11.3,24,22.7,38.4,30.7c14.3,8,31.4,12.4,47.4,8.6c4.9-1.2,10.2-3.1,14.9-1.2
					c4.1,1.7,6.5,5.7,9.1,9.2c8.5,11.3,22.2,18.6,36.3,19.3c6.2,0.3,12.4-0.6,18.3-2.6c-5,2.6-10.5,4.5-16.1,5.4
					c-12.2,2.2-24.7,0.8-37-1c-4.1,2.7-8.2,5.3-12.3,7.9c-8.6-2.9-16.9-6.4-25-10.5C1190,899.3,1164.2,876.3,1145.8,848.6z"/>
				<path fill="#6EACAD" d="M1121.1,833.7c-5.5-12.7-9.4-26.2-11.4-40c30.9-10.5,58.6-28.9,79.5-53.3
					C1174,776.2,1150.6,808.5,1121.1,833.7z"/>
				<path fill="#EF918A" d="M1048.6,861c6.5-23.2,18.9-44.4,35.8-60.5c8.6-1.7,17.1-3.9,25.3-6.7c2,13.7,5.9,27.2,11.4,40
					c-1.4,1.2-2.9,2.4-4.3,3.6c24.3,38.4,45.5,78.6,65.4,119.4c-23.5,9.6-47.8,17.1-72.6,22.4c-17.5-28.5-34.1-57.7-49.8-87.3
					C1054.6,882.1,1049.5,872,1048.6,861z"/>
				<path fill="#F4B5B1" d="M1121.1,833.7c8.7,20,21.5,38.2,37.6,52.8c23.4,21.3,53.4,35,84.8,39.2c-19.5,12-40.1,22.3-61.3,31
					c-19.9-40.8-41.1-81-65.4-119.4C1118.2,836.2,1119.7,834.9,1121.1,833.7z"/>
				<path fill="#F4B5B1" d="M1048.6,861c1,10.9,6.1,21,11.2,30.8c15.6,29.6,32.2,58.7,49.8,87.3c-11,2.4-22.2,4.3-33.4,5.8
					C1043.9,947.9,1037.3,901.4,1048.6,861z"/>
			</g>
			<path fill="#F4B5B1" d="M1217.1,693.9L1217.1,693.9c-18-20-49.5-19.5-66.8,1.1l-84.5,105c-16.2,20.2-18,48.4-4.4,70.5l86.9,141.2
				c30.4,5.9,49,9.5,79.9,8.9c9-0.2,18.4-0.7,25.6-7c3.7-3.2,6-7.9,5.6-12.8c-0.9-10.6-12.9-15-23-17c-25.3-4.8-37.2-6.5-62.9-4.9
				c-17-50.6-40.6-98.5-68.6-143.8C1152.2,797.5,1212.7,723,1217.1,693.9z"/>
			<g>
				<path fill="#EF918A" d="M1250.7,826.3c25.3,0.2,50.4-10.2,68.4-28c-0.1,1.9-0.2,3.8-0.2,5.7c-18.1,20.1-46.9,32.2-73.2,25.9
					c-8.2-21.2-27.2-46.5-45.7-59.8c0.3-0.7,0.6-1.3,0.8-1.9C1222.6,782,1240.2,802.7,1250.7,826.3z"/>
				<path fill="#F4B5B1" d="M1250.7,826.3c-10.6-23.6-28.1-44.3-50-58.1c10.2-23.7,20.2-42.4,26.2-65.1c1.9,1.3,3.9,2.4,6,3.3
					c1.8,0.8,3.7,1.5,5.7,1.3c0.8-0.1,1.6-0.3,2.3-0.7c6.3,8.2,13.5,15.6,22.9,19.6c12.7,5.4,28.1,3.1,39.1-5.2
					c5,5.5,11.7,8.9,18.9,11.4c-0.9,21.8-1.8,43.6-2.7,65.4C1301.2,816.2,1276,826.6,1250.7,826.3z"/>
			</g>
			<g>
				<path fill="#EF918A" d="M1268.2,417c-4.1,7.1-8.1,14.1-12.2,21.2c-17.2-20-39.7-31.4-62.3-31.7c1.7-1.6,3.4-3.1,5.1-4.7
					C1222.8,400.8,1246.9,406.1,1268.2,417z"/>
				<path fill="#F4B5B1" d="M1198.8,401.8c16.1-14.9,32.4-29.8,47.1-45.9c13.4-14.8,25.8-31.1,32.3-50c6.5-18.9,6.6-40.8-3.5-58
					c10.9-14.4,32.2-14,47.1-24.2c10.9-7.5,16.6-20.3,24.3-31.1c12.9-17.9,32.4-30.9,54-35.9c-12.3,48.6-34.5,91.6-59.5,135
					c-24.1,41.8-48.2,83.6-72.2,125.4C1246.9,406.1,1222.8,400.8,1198.8,401.8z"/>
			</g>
		</g>
	</g>
</g>
</svg>
