<?xml version="1.0" encoding="utf-8"?>
<!-- Generator: Adobe Illustrator 18.0.0, SVG Export Plug-In . SVG Version: 6.00 Build 0)  -->
<!DOCTYPE svg PUBLIC "-//W3C//DTD SVG 1.1//EN" "http://www.w3.org/Graphics/SVG/1.1/DTD/svg11.dtd">
<svg version="1.1" id="Layer_1" xmlns="http://www.w3.org/2000/svg" xmlns:xlink="http://www.w3.org/1999/xlink" x="0px" y="0px"
	 viewBox="0 0 1700 1400" enable-background="new 0 0 1700 1400" xml:space="preserve">
<g>
	<rect fill="#FFB0B7" width="1700" height="1400"/>
	<g>
		<ellipse fill="#EF7D8B" cx="850" cy="1208.5" rx="581" ry="39.1"/>
		<g>
			<path fill="#4D2A20" d="M751.6,433.7c2.2-23.6,4.4-47.5,0.8-70.9s-13.9-46.7-32.5-61.4c-31.3-24.7-78.5-18.7-111.7,3.4
				s-55.5,56.7-76.9,90.3c-28.9,45.4-57.7,90.8-86.6,136.2c9.7,12.7,18.6,25.3,28.3,38c49.2-60.2,97.2-121.3,146.4-181.5
				c7.5-9.2,16.2-19.1,28-20.4c18.2-2.1,31.1,16.4,43.1,30.2C705.7,415.1,729.4,427.1,751.6,433.7z"/>
			<path d="M497.1,292.2c8.7,6.8,19.8,11.5,25.2,21.1c9.3,16.6-3,37.6,0.6,56.3c3.9,20.2,27.2,32.6,47.4,29.1s36.6-19.5,45.7-37.9
				c9.2-18.4,12.4-39.1,15.3-59.4c2.2-15,3.9-31.5-4.3-44.2c-2.3-3.5-5.2-6.6-8.2-9.5c-20.1-19.2-45.4-32.9-72.5-39.1
				c-15.9-3.7-33.5-4.6-47.7,3.4c-13.7,7.8-22.2,23.6-22.2,39.3S484.6,282.5,497.1,292.2z"/>
			<path d="M794.5,246.6c-3.9-20.2-8-40.7-18-58.6c-10-17.9-27.2-33.1-47.6-35.3c-25.3-2.7-50.7,17.9-53.3,43.2
				c-36.9,6.2-68.5,34.2-78.3,70.3c-9.8,36.1,0.9,76.4,25.4,104.6c24.5,28.2,61.7,44.3,99,45.5c18.9,0.6,38.4-2.5,54.2-13
				c23.2-15.3,34.5-44.3,35.5-72.1C812.3,303.6,799.8,273.9,794.5,246.6z"/>
			<g>
				<path fill="#734335" d="M774.6,323.5c7.8,5.4,10.3,16.9,12,26.2c1.7,9.3,3.2,19.4,9.6,26.4c6.9,7.5,17.9,9.7,28.1,10
					c20.4,0.7,40.9-4.6,58.8-14.6c1.1-2.2,2-4.5,2.6-6.9c0.6-2.2,1.1-4.5,1.4-6.8c1.6-12.7-1.9-25.6-7.6-37.1
					c-5.7-11.5-13-23.7-20.8-33.8c3.1-4.5,10.9-11.8,8.5-17.6c-2.2-5.2-8.2-7.9-13.8-8.5c-5.6-0.7-11.4,0.2-17-0.4
					c-22.2-2.3-35.6-24.7-52.5-39.3c-4.5-3.9-9.5-7.3-14.7-10.1c-1.3,9.4-3.6,18.6-6.8,27.5c-1.5,11.9-4.3,23.5-8.2,34.8
					C767.5,285.8,775.1,305.1,774.6,323.5z"/>
				<path fill="#734335" d="M805.5,423.8c-2,7.7-1,15.9,0.9,23.7c6.1,25.5,21.2,48.7,42,64.6c12.4,9.5,26.7,16.3,39.1,25.9
					c12.3,9.6,22.4,21.8,35.2,30.7c4.7,3.3,9.8,6.1,15.1,8.4c-10-10.1-19.6-20.5-28.6-31.2c-14.7-17.3-46.7-39-66.9-51.4
					c-14.5-8.9-24.3-23.7-26.6-40.5c-1.3-9.1-1.4-18.4-0.2-27.5c0.5-3.8,1.2-7.7,2.5-11.3c1.5-4.6,3.8-8.8,7.3-12.1
					c0.3-0.3,0.7-0.6,1.1-0.9C816.3,405.5,808.1,413.7,805.5,423.8z"/>
				<path fill="#4D2A20" d="M937.7,577.1c-5.3-2.3-10.3-5.1-15.1-8.4c-12.7-9-22.9-21.2-35.2-30.7c-12.3-9.6-26.6-16.5-39.1-25.9
					c-20.8-15.9-36-39.1-42-64.6c-1.8-7.8-2.9-16-0.9-23.7c2.6-10.1,10.9-18.3,20.7-21.7c10.9-9.1,27.8-7.1,40.7-13.5
					c7.2-3.6,12.7-9.9,16.3-17.2c-17.8,10-38.3,15.3-58.8,14.6c-10.2-0.3-21.2-2.5-28.1-10c-6.4-7-7.9-17-9.6-26.4
					c-1.7-9.3-4.2-20.8-12-26.2c0.4-18.3-7.1-37.7-20.6-50.2c4-11.3,6.7-23,8.2-34.8c-5.3,14.4-13.2,27.9-23.2,39.5
					c8.6,6.3,17.1,14.6,21.1,24.5c3.3,8,2.8,17.4-1.3,24.9c13.4,8.5,22.1,26,21.6,41.9c-5.3-10.7-14.6-20-23.6-28
					c-4.4-3.9-9.5-7.5-15.3-8.7c-5.8-1.2-12.6,0.6-15.8,5.5c-3.9,6-1.6,14.2,2.4,20.1c5.8,8.5,14.9,14.6,25,16.7
					c0.9,19.7-6.1,39.8-19.5,54.1c15.2,25.5,22.6,55.6,21,85.2c6.3,1.7,12.5,2.8,18.8,3.5c9-0.8,18-1.2,27-0.9
					c30.5,0.8,61.6,8.9,86.6,28.1c16.4,12.6,29.6,29.4,43.4,45.2c13.9,15.8,29,31.1,47.4,39.4c8.3,3.8,17.5,5.8,26.6,5.8
					C980.7,617.6,958.2,598,937.7,577.1z"/>
			</g>
			<g>
				<path fill="#880B03" d="M997.6,962.8c-27.8-3.5-54.4-5.7-79-6.3l-95.4,216.4h114.6C979.4,1111.7,1000.6,1036.8,997.6,962.8z"/>
				<path fill="#880B03" d="M1372.7,1060.8c-16.3-8.4-43.8-19-78.2-30.2c-48.3,11.7-95.2,29.8-140,51.4
					c-55,26.5-107.3,58.3-158.9,90.9h305.8L1372.7,1060.8z"/>
				<path fill="#C31201" d="M1294.5,1030.5c-79.2-25.9-195.2-55.1-296.9-67.7c3,74-18.2,148.9-59.8,210.1h57.8
					c51.7-32.6,103.9-64.4,158.9-90.9C1199.3,1060.4,1246.2,1042.2,1294.5,1030.5z"/>
			</g>
			<path fill="#734335" d="M862.5,677.2c20.6-19.2,31.1-49.3,24.9-76.8c-8.1-36.1-42.3-61.7-78.2-70.6c-12.9-3.2-26.1-4.6-39.3-5
				c-7.5,11.7-13.6,24.5-17.9,36c-13.3,35.9-4.1,76.3,10.6,111.7c3.9,9.4,8.2,18.6,12.5,27.8c3.1,0.6,6.2,1.1,9.3,1.5
				C812.4,704.9,841.9,696.4,862.5,677.2z"/>
			<path fill="#FFFFFF" d="M955.6,780.9c-17.6-5-32.8-20.4-51-18.1c-3.8,0.5-7.7,1.8-11.4,0.8c-3.7-0.9-6.9-5.5-4.6-8.6
				c1.3-1.8,3.7-2.3,5.8-2.6c23.7-3.4,47.7-0.1,71.6,1.3c23.9,1.4,48.8,0.6,70.2-10.1c13.4-6.7,25-18.2,31-31.7
				c0-21.1-10.3-42.1-30.4-54.7c-11-6.9-21.9-14.3-32.4-22.1c-9,0-18.2-2-26.6-5.8c-18.5-8.3-33.6-23.6-47.4-39.4
				c-13.9-15.8-27.1-32.6-43.4-45.2c-25.1-19.3-56.1-27.3-86.6-28.1c-9-0.2-18,0.1-27,0.9c0.4,0,0.8,0.1,1.2,0.1
				c-1.7,2.3-3.2,4.7-4.8,7.1c13.2,0.3,26.4,1.8,39.3,5c35.9,8.9,70.2,34.5,78.2,70.6c6.1,27.5-4.4,57.5-24.9,76.8
				c-20.6,19.2-50.1,27.8-78.1,24.6c-3.1-0.4-6.2-0.9-9.3-1.5c12,25.5,24.7,50.8,31.4,78.1c2.3,9.1,3.7,18.6,4.2,28.1
				c61.1,24.5,129.8,29.6,193.8,14.7c3.2-13.6,6.5-27.4,10-41.4C999.7,780.2,970,785,955.6,780.9z"/>
			<path fill="#FFE4E6" d="M1036.3,743.7c-21.4,10.7-46.3,11.5-70.2,10.1c-23.9-1.4-47.9-4.7-71.6-1.3c-2.2,0.3-4.6,0.8-5.8,2.6
				c-2.2,3.1,0.9,7.7,4.6,8.6c3.7,0.9,7.6-0.4,11.4-0.8c18.1-2.3,33.4,13.1,51,18.1c14.4,4.1,44.1-0.7,59-1.1
				c10-4.6,19.4-10.4,28.1-17.3c16.5-13,24.6-31.8,24.5-50.6C1061.3,725.5,1049.7,737,1036.3,743.7z"/>
			<path fill="#4D2A20" d="M810.8,806.5c0.3,5.2,0.3,10.4,0,15.6c58.9,24.5,124.2,33.6,187.5,26c2.1-8.9,4.2-17.8,6.3-26.9
				C940.6,836.1,871.9,831,810.8,806.5z"/>
			<path fill="#734335" d="M810.8,822.1c-1.4,24.1-9.4,47.2-26.6,63.6c37.4,68.3,93.4,101.2,171.7,98.2
				c19.8-44.6,31.4-89.2,42.4-135.8C935,855.6,869.7,846.6,810.8,822.1z"/>
			<path fill="#734335" d="M459.3,528c-7.3-37-21.5-72.6-41.9-104.3c-5.7-8.9-17.4-15.1-27.8-13.8c6.7,34.6,7.3,75.4,4.8,116.7
				C415.9,524.8,437.7,525.3,459.3,528z"/>
			<path fill="#4D2A20" d="M450.3,650.6c16.2-10.4,28.7-25.5,41.8-39.7c-0.8-1.3-1.5-2.5-2.3-3.6c-5.3-8.2-12.7-15-17.7-23.5
				c-7.2-12.4-8.4-27.3-10.5-41.5c-0.7-4.8-1.5-9.5-2.4-14.2c-21.5-2.7-43.3-3.2-65-1.4c-3,49.4-10.4,99.6-17.1,141.3
				c-1.6,10.3-3.3,20.4-4.9,30.3c12.4-11.6,26.4-21.4,41.6-29.1C426,662.8,438.9,658,450.3,650.6z"/>
			<path fill="#4D2A20" d="M452.4,847.8c-1.4-7.6-2.9-15.2-4.3-22.7c-0.1-0.3-0.1-0.6-0.2-0.9c-33-5-67-3.2-99.2,5.4
				c-1.4,7.1-2.7,14.2-4.1,21.2C379.7,841.7,416.9,840.6,452.4,847.8z"/>
			<path fill="#734335" d="M448,824.2c-6.3-34.3-11.6-69.4-6.1-103.8c5.6-34.7,23.9-69,54.8-85.7c4.1-7.4,0-16.3-4.6-23.9
				c-13.1,14.3-25.7,29.3-41.8,39.7c-11.5,7.4-24.3,12.2-36.5,18.4c-15.1,7.7-29.2,17.6-41.6,29.1c-7.6,46.2-15.5,89.7-23.5,131.4
				C381,821,415,819.2,448,824.2z"/>
			<path fill="#C31201" d="M784.2,885.7c-34.8-5-69.7,1.6-98.1,22.4c-28.4,20.7-48.2,52.8-54,87.5c-68.8,1-142.5,13.7-209.4,29.5
				c-26.5,15.8-58.4,38.5-84.9,54.3c25.6-31.4,51.2-62.8,76.8-94.1c18.7-23,38.2-47.9,46-75.8c-0.9-20.6-4.2-41.1-8-61.6
				c-35.5-7.2-72.7-6.2-107.8,3c-15.4,78.5-31.3,151.5-47.5,226.2c-3.6,16.6-2.6,32.9,2,47.8c13,15,29.8,27.2,47.8,35.3
				c38.4,17.4,81.7,19.7,123.9,19.4c84.4-0.5,168.8-10.1,251.2-28.5c38.4-8.6,78-20,106.6-47c15.9-15.1,27.6-34.3,43.8-49.1
				c17.9-16.3,40.3-26.4,62.4-36.2c1.7-0.8,3.4-1.5,5.1-2.3c1.1-2,2.1-4,3.2-6c4.7-8.9,9-17.8,12.9-26.6
				C877.6,986.9,821.6,954,784.2,885.7z"/>
			<path fill="#880B03" d="M872.4,1055c-16.2,14.8-27.9,34-43.8,49.1c-28.6,27-68.2,38.4-106.6,47c-82.4,18.4-166.7,28-251.2,28.5
				c-42.1,0.2-85.5-2-123.9-19.4c-18-8.2-34.8-20.4-47.8-35.3c11.3,36.6,44.6,64.6,86.2,66.5c90,4.1,180.5,2.3,270.3-2.8
				c60.6-3.4,123.5-10,175.1-41.9c48.7-30.1,82-79.5,109.1-130.1c-1.7,0.8-3.4,1.5-5.1,2.3C912.7,1028.6,890.2,1038.7,872.4,1055z"
				/>
			<path fill="#880B03" d="M337.7,1079.4c26.5-15.8,58.4-38.5,84.9-54.3c26.3-23.3,36.3-60.4,37.8-95.5c0.3-6.7,0.3-13.4,0-20.1
				c-7.8,27.8-27.3,52.8-46,75.8C388.9,1016.6,363.3,1048,337.7,1079.4z"/>
			<g>
				<path fill="#734335" d="M706.1,447.2c6.9,21.9,14.2,43.6,21.6,65.4c7.6,22.6,15.3,45.2,22.9,67.8c5.4,16,10.9,32.2,20.5,46.2
					c9.5,13.9,23.8,25.5,40.5,27.9c14.5,2.1,29.9-3.2,40-13.8c2.4-2.5,4.8-5.8,7-9.6c4-13.4,4.7-27.9,2.9-41.8
					c-3.2-24.2-13.4-46.8-24.2-68.6c-36.2-73.6-80-143.4-130.5-208c-21.9-28-65.1-25.5-83.6,4.9C576,394.9,521.6,468.1,462.5,536.5
					c-16.4,1-32.8,2.3-49.2,3.5c-14.3,1-26,11.5-28.9,25.5c-4.9,23.9-10.9,48.1-14.7,71.7c-0.9,5.6-1.8,11.2-1,16.8
					c0.8,5.6,3.7,11.1,8.6,13.9c19.1-29.8,47.2-54.6,79-70.2c-2.9,6.8-9.8,10.9-15.4,15.7c-5.6,4.8-11.5,9.8-14.9,16.3
					c-3.5,6.6-3.9,15.3,0.9,20.9c7.2-10.5,20.1-17.4,30.5-24.8c10.3-7.4,21-14.8,29-24.6c8-9.9,13.2-22.9,10.7-35.3
					c54.7-56.2,109.9-114.7,164.6-170.9c5.6-16.8,11.5-30.6,17.2-47.4C687,380.9,695.7,414.3,706.1,447.2z"/>
				<path fill="#4D2A20" d="M851.6,640.6c-10.1,10.6-25.5,15.9-40,13.8c-16.7-2.4-31-14-40.5-27.9c-9.5-13.9-15.1-30.2-20.5-46.2
					c-7.6-22.6-15.3-45.2-22.9-67.8c-7.3-21.7-14.7-43.5-21.6-65.4c-10.4-32.8-19.1-66.3-27.5-99.7c-5.6,16.8-11.5,30.6-17.2,47.4
					c27.7,75.5,55.3,150.9,83,226.4c7.2,19.5,15.6,40.6,33.7,51c21.1,12.1,50,4.2,66-14.2c6.8-7.8,11.5-17.1,14.5-27
					C856.4,634.8,854,638.1,851.6,640.6z"/>
			</g>
			<g>
				<path fill="#4D2A20" d="M1006.3,1171.1c-79,2.1-159.2,10.5-233.4,36.6c54.3-12.4,112-12.1,168.3-11.6
					c72.3,0.7,209.5-0.3,314.1-1.6c0-8.4-0.5-16.9-1.6-25.3C1171.3,1173.1,1088.7,1168.9,1006.3,1171.1z"/>
				<path fill="#734335" d="M1253.6,1169.3c-4.8-36.1-20.1-70.8-43.8-98.5c-39.3,12.7-78.6,25.4-117.9,38
					c-18.7,6-34.6,11.4-53.9,12.2c-10.3,0.4-50.2,4.4-56.9-5.4c-5.4-7.8-11-16.1-16.6-24.5c-13.6-20.2-41.4-26.7-62.9-14.5
					c-7.3,4.1-14.1,8.7-19.7,13.7c-18.3,16.2-31.3,34.2-53.2,47.2c-41.4,24.6-89.4,34.5-105.4,85.8c16.1-6.7,32.6-11.8,49.5-15.6
					c74.3-26.1,154.4-34.5,233.4-36.6C1088.7,1168.9,1171.3,1173.1,1253.6,1169.3z"/>
				<path fill="#C31201" d="M1287.4,1167.3c31.3-2.4,63.3-6.5,90.8-21.5c13.6-7.4,25.9-18,34.8-30.7c-3.4-24.7-19.4-42.9-40.3-54.3
					c-20-10.9-44.5-15.7-66.8-14.1c-27,1.9-52.9,10.2-78.5,18.5c-5.8,1.9-11.7,3.8-17.5,5.7c23.7,27.7,38.9,62.4,43.8,98.5
					C1264.9,1168.8,1276.2,1168.2,1287.4,1167.3z"/>
				<path fill="#880B03" d="M1413,1115.1c-8.9,12.6-21.2,23.3-34.8,30.7c-27.5,15-59.5,19.1-90.8,21.5c-11.3,0.9-22.5,1.5-33.8,2
					c1.1,8.4,1.7,16.8,1.6,25.3c34-0.4,64.6-0.8,88.4-1.2c42.4-0.7,74.5-36.8,69.6-77.1C1413.1,1115.8,1413.1,1115.5,1413,1115.1z"
					/>
			</g>
		</g>
	</g>
</g>
</svg>
